<?xml version="1.0"?>
<svg width="196" height="34" xmlns="http://www.w3.org/2000/svg" xmlns:svg="http://www.w3.org/2000/svg">

 <g class="layer">
  <title>Layer 1</title>
  <path d="m13.93,7.96c3.27,0 5.67,0.66 7.2,1.98c1.56,1.32 2.34,3.04 2.34,5.18c0,0.72 -0.09,1.52 -0.29,2.41c-0.45,1.97 -1.3,3.7 -2.55,5.19c-1.25,1.46 -2.79,2.6 -4.61,3.42c-1.8,0.79 -3.76,1.18 -5.87,1.18c-3.33,0 -5.81,-0.66 -7.41,-1.98c-1.59,-1.34 -2.38,-3.12 -2.38,-5.32c0,-0.75 0.1,-1.58 0.29,-2.49c0.45,-1.87 1.32,-3.53 2.59,-4.97c1.3,-1.46 2.87,-2.59 4.72,-3.38c1.87,-0.82 3.86,-1.22 5.97,-1.22zm-0.11,3.2c-0.5,0 -1.04,0.46 -1.62,1.37c-0.55,0.89 -1.21,2.58 -1.98,5.07c-0.76,2.5 -1.15,4.25 -1.15,5.26c0,0.53 0.09,0.89 0.25,1.08c0.17,0.17 0.4,0.25 0.69,0.25c0.5,0.05 1.02,-0.38 1.55,-1.29c0.55,-0.92 1.23,-2.69 2.05,-5.33c0.74,-2.33 1.11,-4.02 1.11,-5.08c0,-0.5 -0.08,-0.85 -0.25,-1.04c-0.14,-0.19 -0.36,-0.29 -0.65,-0.29z" fill="#ffffff" id="svg_1"/>
  <path d="m44.99,22.03c-0.05,0.1 -0.07,0.24 -0.07,0.43c0,0.17 0.03,0.3 0.11,0.4c0.09,0.1 0.21,0.14 0.36,0.14c0.28,0 0.52,-0.12 0.72,-0.36c0.21,-0.26 0.36,-0.39 0.43,-0.39c0.12,0 0.21,0.08 0.29,0.25c0.07,0.14 0.1,0.32 0.1,0.54c0.03,0.7 -0.2,1.38 -0.68,2.05c-0.48,0.65 -1.19,1.19 -2.12,1.62c-0.92,0.41 -2.02,0.61 -3.32,0.61c-1.58,0 -2.84,-0.36 -3.78,-1.08c-0.93,-0.74 -1.41,-1.72 -1.44,-2.95c0,-0.89 0.22,-1.88 0.65,-2.99l1.98,-5.18c0.12,-0.31 0.18,-0.56 0.18,-0.76c0,-0.31 -0.11,-0.55 -0.32,-0.72c-0.19,-0.19 -0.43,-0.28 -0.72,-0.28c-0.46,0 -0.93,0.21 -1.41,0.64c-0.45,0.41 -0.82,1.08 -1.11,2.02l0,-0.07l-2.27,7.31c-0.07,0.28 -0.11,0.54 -0.11,0.75c0,0.31 0.06,0.57 0.18,0.76c0.12,0.17 0.29,0.33 0.51,0.5c0.16,0.17 0.28,0.31 0.36,0.43c0.07,0.1 0.08,0.23 0.03,0.4c-0.12,0.31 -0.36,0.54 -0.72,0.68c-0.36,0.15 -0.91,0.22 -1.65,0.22l-8.21,0c-0.63,0 -1.08,-0.1 -1.37,-0.29c-0.29,-0.21 -0.38,-0.49 -0.29,-0.83c0.1,-0.28 0.35,-0.54 0.76,-0.75c0.36,-0.19 0.66,-0.42 0.9,-0.69c0.24,-0.26 0.44,-0.68 0.61,-1.26l5.47,-17.96c0.07,-0.22 0.11,-0.4 0.11,-0.54c0,-0.26 -0.07,-0.48 -0.22,-0.65c-0.12,-0.17 -0.28,-0.33 -0.5,-0.5c-0.24,-0.19 -0.42,-0.36 -0.54,-0.51c-0.1,-0.14 -0.11,-0.33 -0.04,-0.57c0.15,-0.55 0.9,-1.03 2.27,-1.44c1.37,-0.41 2.8,-0.61 4.29,-0.61c1.39,0 2.41,0.26 3.06,0.79c0.67,0.53 1,1.25 1,2.16c0,0.53 -0.08,1.04 -0.25,1.55l-1.94,6.33c0.93,-1.22 1.92,-2.07 2.95,-2.55c1.06,-0.48 2.2,-0.72 3.42,-0.72c1.46,0 2.64,0.44 3.53,1.33c0.91,0.89 1.37,2.04 1.37,3.45c0,0.75 -0.12,1.48 -0.36,2.2l-2.2,7.09z" fill="#ffffff" id="svg_2"/>
  <path d="m82.72,22.03c-0.05,0.1 -0.08,0.24 -0.08,0.43c0,0.17 0.04,0.3 0.11,0.4c0.1,0.1 0.22,0.14 0.36,0.14c0.29,0 0.53,-0.12 0.72,-0.36c0.22,-0.26 0.36,-0.39 0.43,-0.39c0.12,0 0.22,0.08 0.29,0.25c0.07,0.14 0.11,0.32 0.11,0.54c0.02,0.7 -0.2,1.38 -0.68,2.05c-0.48,0.65 -1.19,1.19 -2.13,1.62c-0.91,0.41 -2.01,0.61 -3.31,0.61c-1.58,0 -2.84,-0.36 -3.78,-1.08c-0.94,-0.74 -1.42,-1.72 -1.44,-2.95c0,-0.89 0.22,-1.88 0.65,-2.99l1.98,-5.18c0.12,-0.31 0.18,-0.56 0.18,-0.76c0,-0.31 -0.11,-0.55 -0.33,-0.72c-0.19,-0.19 -0.43,-0.28 -0.72,-0.28c-0.4,0 -0.82,0.18 -1.26,0.54c-0.43,0.36 -0.81,0.92 -1.15,1.69l-1.98,6.44c-0.05,0.1 -0.07,0.24 -0.07,0.43c0,0.17 0.04,0.3 0.11,0.4c0.09,0.1 0.21,0.14 0.36,0.14c0.29,0 0.53,-0.12 0.72,-0.36c0.21,-0.26 0.36,-0.39 0.43,-0.39c0.12,0 0.22,0.08 0.29,0.25c0.07,0.14 0.11,0.32 0.11,0.54c0.02,0.7 -0.21,1.38 -0.69,2.05c-0.48,0.65 -1.19,1.19 -2.12,1.62c-0.91,0.41 -2.02,0.61 -3.31,0.61c-1.59,0 -2.85,-0.36 -3.78,-1.08c-0.94,-0.74 -1.42,-1.72 -1.44,-2.95c0,-0.89 0.21,-1.88 0.64,-2.99l1.98,-5.18c0.12,-0.31 0.18,-0.56 0.18,-0.76c0,-0.31 -0.1,-0.55 -0.32,-0.72c-0.19,-0.19 -0.43,-0.28 -0.72,-0.28c-0.41,0 -0.83,0.18 -1.26,0.54c-0.43,0.33 -0.79,0.88 -1.08,1.65l-2.38,7.71c-0.09,0.26 -0.14,0.51 -0.14,0.75c0,0.29 0.06,0.53 0.18,0.72c0.12,0.17 0.29,0.35 0.5,0.54c0.17,0.15 0.29,0.28 0.36,0.4c0.08,0.12 0.09,0.26 0.04,0.43c-0.1,0.31 -0.32,0.54 -0.68,0.68c-0.36,0.15 -0.93,0.22 -1.7,0.22l-8.2,0c-0.63,0 -1.07,-0.1 -1.34,-0.29c-0.28,-0.21 -0.39,-0.49 -0.32,-0.83c0.1,-0.28 0.35,-0.54 0.76,-0.75c0.36,-0.19 0.66,-0.42 0.9,-0.69c0.24,-0.26 0.44,-0.68 0.61,-1.26l3.2,-10.4c0.05,-0.12 0.07,-0.29 0.07,-0.5c0,-0.27 -0.06,-0.47 -0.18,-0.62c-0.09,-0.14 -0.26,-0.32 -0.5,-0.54c-0.24,-0.19 -0.41,-0.36 -0.5,-0.5c-0.1,-0.14 -0.11,-0.34 -0.04,-0.58c0.14,-0.55 0.9,-1.03 2.27,-1.44c1.37,-0.43 2.79,-0.64 4.28,-0.64c1.18,0 2.1,0.32 2.77,0.97c0.7,0.65 1.04,1.53 1.01,2.66c0.99,-1.37 2.02,-2.31 3.1,-2.84c1.1,-0.53 2.29,-0.79 3.56,-0.79c1.39,0 2.52,0.4 3.39,1.22c0.88,0.79 1.38,1.84 1.47,3.13c1.03,-1.63 2.14,-2.76 3.31,-3.38c1.18,-0.65 2.46,-0.97 3.86,-0.97c1.46,0 2.64,0.44 3.52,1.33c0.92,0.89 1.37,2.04 1.37,3.45c0,0.75 -0.12,1.48 -0.36,2.2l-2.19,7.09z" fill="#ffffff" id="svg_3"/>
  <path d="m104.93,7.96c1.06,0 1.9,0.43 2.52,1.29c0.65,0.84 0.97,1.99 0.97,3.46c0,1.27 -0.22,2.64 -0.68,4.1c-0.89,2.95 -2.32,5.74 -4.28,8.35c-1.95,2.62 -4.19,4.72 -6.74,6.3c-2.52,1.59 -5.04,2.38 -7.56,2.38c-1.24,0 -2.32,-0.22 -3.24,-0.65c-0.88,-0.43 -1.56,-1.01 -2.01,-1.73c-0.48,-0.72 -0.72,-1.48 -0.72,-2.3c0,-0.36 0.06,-0.76 0.18,-1.19c0.21,-0.67 0.57,-1.19 1.08,-1.55c0.5,-0.36 1.1,-0.54 1.8,-0.54c1.1,0 2,0.38 2.7,1.12c0.72,0.77 1.17,1.81 1.37,3.13c1.53,-0.07 2.95,-0.73 4.24,-1.98c-1.22,-0.21 -2.13,-0.62 -2.73,-1.22c-0.58,-0.63 -0.97,-1.59 -1.19,-2.88l-1.44,-8.82c-0.07,-0.46 -0.18,-0.77 -0.32,-0.94c-0.12,-0.19 -0.29,-0.29 -0.51,-0.29c-0.17,0 -0.37,0.09 -0.61,0.26c-0.22,0.16 -0.37,0.25 -0.47,0.25c-0.19,0 -0.29,-0.21 -0.29,-0.61c0,-0.34 0.06,-0.7 0.18,-1.08c0.44,-1.37 1.24,-2.52 2.42,-3.46c1.17,-0.96 2.54,-1.44 4.1,-1.44c1.54,0 2.66,0.46 3.38,1.37c0.75,0.91 1.23,2.31 1.44,4.21l1.08,7.92c0.08,0.6 0.29,0.9 0.65,0.9c0.43,0 0.94,-0.38 1.51,-1.15c0.58,-0.79 1.14,-1.91 1.7,-3.35c-0.72,-0.65 -1.28,-1.39 -1.66,-2.23c-0.38,-0.84 -0.58,-1.74 -0.58,-2.7c0,-0.75 0.1,-1.42 0.29,-2.02c0.29,-0.96 0.73,-1.68 1.33,-2.16c0.63,-0.5 1.32,-0.75 2.09,-0.75z" fill="#ffffff" id="svg_4"/>
  <path d="m122.86,0.4c2.57,0 4.49,0.39 5.76,1.18c1.3,0.77 1.95,1.72 1.95,2.85c0,0.91 -0.39,1.62 -1.15,2.12c-0.75,0.48 -1.73,0.72 -2.96,0.72c-1.12,0 -2,-0.27 -2.62,-0.83c-0.63,-0.55 -0.94,-1.23 -0.94,-2.05c0,-0.5 0.16,-1.03 0.47,-1.58c-0.72,0 -1.32,0.18 -1.8,0.54c-0.48,0.33 -0.85,0.92 -1.12,1.76c-0.14,0.53 -0.21,1.02 -0.21,1.48c0,0.57 0.09,1.03 0.28,1.37c0.22,0.31 0.52,0.46 0.9,0.46l2.13,0c1.25,0 1.87,0.39 1.87,1.16c0,0.09 -0.02,0.24 -0.07,0.43c-0.15,0.53 -0.45,0.92 -0.9,1.19c-0.43,0.26 -1.09,0.39 -1.98,0.39l-1.08,0l-3.57,11.67c-0.07,0.28 -0.1,0.54 -0.1,0.75c0,0.31 0.06,0.57 0.18,0.76c0.12,0.17 0.28,0.33 0.5,0.5c0.17,0.17 0.29,0.31 0.36,0.43c0.07,0.1 0.08,0.23 0.04,0.4c-0.12,0.31 -0.36,0.54 -0.72,0.68c-0.36,0.15 -0.92,0.22 -1.66,0.22l-8.21,0c-0.62,0 -1.08,-0.1 -1.37,-0.29c-0.28,-0.21 -0.38,-0.49 -0.28,-0.83c0.09,-0.28 0.34,-0.54 0.75,-0.75c0.36,-0.19 0.66,-0.42 0.9,-0.69c0.24,-0.26 0.45,-0.68 0.61,-1.26l2.81,-9.21c0.12,-0.36 0.18,-0.73 0.18,-1.12c0,-0.48 -0.11,-0.85 -0.32,-1.11c-0.19,-0.29 -0.49,-0.6 -0.9,-0.94c-0.27,-0.22 -0.47,-0.4 -0.61,-0.54c-0.12,-0.17 -0.18,-0.36 -0.18,-0.58c-0.03,-0.45 0.13,-0.78 0.46,-0.97c0.36,-0.19 1.04,-0.29 2.02,-0.29l0.9,0c-0.17,-0.6 -0.25,-1.2 -0.25,-1.8c0,-0.6 0.11,-1.22 0.32,-1.87c0.46,-1.22 1.43,-2.25 2.92,-3.09c1.51,-0.84 3.74,-1.26 6.69,-1.26z" fill="#ffffff" id="svg_5"/>
  <path d="m137.08,7.96c3.27,0 5.67,0.66 7.2,1.98c1.56,1.32 2.34,3.04 2.34,5.18c0,0.72 -0.09,1.52 -0.28,2.41c-0.46,1.97 -1.31,3.7 -2.56,5.19c-1.25,1.46 -2.78,2.6 -4.61,3.42c-1.8,0.79 -3.75,1.18 -5.87,1.18c-3.33,0 -5.8,-0.66 -7.41,-1.98c-1.59,-1.34 -2.38,-3.12 -2.38,-5.32c0,-0.75 0.1,-1.58 0.29,-2.49c0.46,-1.87 1.32,-3.53 2.59,-4.97c1.3,-1.46 2.87,-2.59 4.72,-3.38c1.87,-0.82 3.86,-1.22 5.97,-1.22zm-0.1,3.2c-0.51,0 -1.05,0.46 -1.62,1.37c-0.56,0.89 -1.22,2.58 -1.98,5.07c-0.77,2.5 -1.16,4.25 -1.16,5.26c0,0.53 0.09,0.89 0.26,1.08c0.16,0.17 0.39,0.25 0.68,0.25c0.5,0.05 1.02,-0.38 1.55,-1.29c0.55,-0.92 1.23,-2.69 2.05,-5.33c0.74,-2.33 1.12,-4.02 1.12,-5.08c0,-0.5 -0.09,-0.85 -0.26,-1.04c-0.14,-0.19 -0.36,-0.29 -0.64,-0.29z" fill="#ffffff" id="svg_6"/>
  <path d="m160.71,7.96c3.26,0 5.66,0.66 7.2,1.98c1.56,1.32 2.34,3.04 2.34,5.18c0,0.72 -0.1,1.52 -0.29,2.41c-0.46,1.97 -1.31,3.7 -2.55,5.19c-1.25,1.46 -2.79,2.6 -4.61,3.42c-1.8,0.79 -3.76,1.18 -5.87,1.18c-3.34,0 -5.81,-0.66 -7.42,-1.98c-1.58,-1.34 -2.37,-3.12 -2.37,-5.32c0,-0.75 0.09,-1.58 0.29,-2.49c0.45,-1.87 1.32,-3.53 2.59,-4.97c1.29,-1.46 2.86,-2.59 4.71,-3.38c1.87,-0.82 3.87,-1.22 5.98,-1.22zm-0.11,3.2c-0.5,0 -1.04,0.46 -1.62,1.37c-0.55,0.89 -1.21,2.58 -1.98,5.07c-0.77,2.5 -1.15,4.25 -1.15,5.26c0,0.53 0.08,0.89 0.25,1.08c0.17,0.17 0.4,0.25 0.68,0.25c0.51,0.05 1.03,-0.38 1.55,-1.29c0.55,-0.92 1.24,-2.69 2.05,-5.33c0.75,-2.33 1.12,-4.02 1.12,-5.08c0,-0.5 -0.08,-0.85 -0.25,-1.04c-0.15,-0.19 -0.36,-0.29 -0.65,-0.29z" fill="#ffffff" id="svg_7"/>
  <path d="m190.53,21.82c-0.05,0.19 -0.08,0.32 -0.08,0.39c0,0.17 0.05,0.3 0.15,0.4c0.09,0.09 0.21,0.14 0.36,0.14c0.29,0 0.53,-0.12 0.72,-0.36c0.21,-0.26 0.36,-0.39 0.43,-0.39c0.12,0 0.22,0.08 0.29,0.25c0.07,0.17 0.11,0.36 0.11,0.57c0.02,0.65 -0.23,1.31 -0.76,1.98c-0.5,0.68 -1.19,1.23 -2.05,1.66c-0.87,0.43 -1.8,0.65 -2.81,0.65c-1.2,0 -2.24,-0.23 -3.13,-0.69c-0.89,-0.45 -1.5,-1.05 -1.84,-1.8c-0.65,0.84 -1.39,1.47 -2.23,1.88c-0.84,0.4 -1.73,0.61 -2.66,0.61c-1.11,0 -2.14,-0.28 -3.1,-0.83c-0.94,-0.55 -1.69,-1.33 -2.27,-2.34c-0.55,-1.03 -0.83,-2.2 -0.83,-3.49c0,-2.19 0.41,-4.24 1.23,-6.16c0.84,-1.94 2,-3.5 3.49,-4.68c1.49,-1.2 3.18,-1.8 5.08,-1.8c1.03,0 1.9,0.12 2.62,0.36c0.75,0.24 1.42,0.6 2.02,1.08l1.22,-4.03c0.08,-0.22 0.11,-0.4 0.11,-0.54c0,-0.26 -0.07,-0.48 -0.21,-0.65c-0.12,-0.17 -0.29,-0.33 -0.51,-0.5c-0.24,-0.19 -0.42,-0.36 -0.54,-0.51c-0.09,-0.14 -0.11,-0.33 -0.03,-0.57c0.14,-0.55 0.9,-1.03 2.26,-1.44c1.37,-0.41 2.8,-0.61 4.29,-0.61c1.39,0 2.41,0.26 3.06,0.79c0.67,0.53 1.01,1.25 1.01,2.16c0,0.53 -0.09,1.04 -0.26,1.55l-5.14,16.92zm-6.02,-10.12c-0.38,-0.34 -0.8,-0.5 -1.26,-0.5c-0.69,0 -1.38,0.51 -2.05,1.54c-0.67,1.04 -1.21,2.28 -1.62,3.75c-0.41,1.46 -0.6,2.78 -0.57,3.96c0,1.32 0.43,1.98 1.29,1.98c0.31,0 0.58,-0.12 0.79,-0.36c0.22,-0.27 0.42,-0.69 0.62,-1.26l2.8,-9.11z" fill="#ffffff" id="svg_8"/>
 </g>
</svg>